# xmcd
#
# Track frame offsets: 
#        150
#        13373
#        27572
#        41268
#        54901
#        69288
#        82503
#        97703
#        109540
#        123043
#        133941
#        147813
#        160416
#        170309
#        203169
#        216027
#        224184
#        232975
#        245324
#        260158
#        275900
#
# Disc length: 3949 seconds
#
# Revision: 0
# Processed by: cddbd v1.5.2PL0 Copyright (c) Steve Scherf et al.
# Submitted via: ExactAudioCopy v0.99pb4
#
DISCID=260f6b15
DTITLE=Roy Clark - The Roy Clark Anthology - Disc 3
DYEAR=2004
DGENRE=Country
TTITLE0=What a Wonderful World
TTITLE1=I Give You Music
TTITLE2=I Really Don't Want to Know
TTITLE3=Take Good Care of Her
TTITLE4=Near You
TTITLE5=Jimmy Brown, the Newsboy
TTITLE6=Somewhere, My Love
TTITLE7=The Most Beautiful Girl
TTITLE8=Roy's Guitar Boogie
TTITLE9=Chain Gang of Love
TTITLE10=But, She Loves Me
TTITLE11=Rocky Top
TTITLE12=Alabama Jubilee
TTITLE13=Duelin' Banjos
TTITLE14=Kansas City
TTITLE15=Green Green Grass of Home
TTITLE16=Foggy Mountain Breakdown
TTITLE17=Under The Double Eagle
TTITLE18=Orange Blossom Special
TTITLE19=Yesterday, When I Was Young (Live)
TTITLE20=Malaguena
EXTD=
EXTT0=
EXTT1=
EXTT2=
EXTT3=
EXTT4=
EXTT5=
EXTT6=
EXTT7=
EXTT8=
EXTT9=
EXTT10=
EXTT11=
EXTT12=
EXTT13=
EXTT14=
EXTT15=
EXTT16=
EXTT17=
EXTT18=
EXTT19=
EXTT20=
PLAYORDER=
